<?xml version="1.0" encoding="utf-8"?>
<svg version="1.1" id="Layer_1" x="0px" y="0px" viewBox="0 0 496.2 496.2" style="enable-background:new 0 0 496.2 496.2;" xmlns="http://www.w3.org/2000/svg">
  <path style="fill: rgb(73, 128, 217);" d="M496.2,248.1C496.2,111.1,385.1,0,248.1,0S0,111.1,0,248.1s111.1,248.1,248.1,248.1 S496.2,385.1,496.2,248.1z"/>
  <path style="fill:#EA5454;" d="M385.8,161.1H110.4l26.5,231.1h0.1c1.2,15.8,50.6,28.5,111.2,28.5c60.7,0,110-12.7,111.2-28.5l0,0 L385.8,161.1z"/>
  <path style="fill:#E04444;" d="M124.3,166.7c26,10.4,59.1,20.9,123.8,20.9c67.8,0,97.9-10.4,123.8-20.9 c-29,7.9-73.7,12.9-123.8,12.9S153.3,174.6,124.3,166.7z"/>
  <path style="fill:#EA4949;" d="M406.6,133.8h-317v11.3h0.1c0,0.1,0,0.2,0,0.3c0,18.9,70.9,34.2,158.4,34.2s158.4-15.3,158.4-34.2 c0-0.1,0-0.2,0-0.3l0,0v-11.3H406.6z"/>
  <path style="fill:#EF6565;" d="M406.5,134.6c0-18.9-70.9-34.2-158.4-34.2S89.7,115.7,89.7,134.6s70.9,34.2,158.4,34.2 S406.5,153.5,406.5,134.6z"/>
  <path style="fill:#D82727;" d="M381.6,134.6c0-15.9-59.8-28.8-133.5-28.8s-133.5,12.9-133.5,28.8c0,5.5,7.1,10.6,19.4,15 c23.4,8.3,204.7,8.3,228.1,0C374.5,145.2,381.6,140.1,381.6,134.6z"/>
  <g>
    <path style="fill:#A3D5E0;" d="M362.2,149.6c-23.4-8.3-65.7-13.8-114-13.8s-90.6,5.5-114,13.8c23.4,8.3,65.7,13.8,114,13.8 C296.4,163.4,338.7,157.9,362.2,149.6z"/>
    <path style="fill:#A3D5E0;" d="M337.1,156.1c9.7-1.9,18.2-4.1,25.1-6.5c-23.4-8.3-65.7-13.8-114-13.8s-90.6,5.5-114,13.8 c6.8,2.4,15.3,4.6,25.1,6.5c23.6-4.6,54.8-7.3,89-7.3C282.3,148.8,313.5,151.5,337.1,156.1z"/>
  </g>
  <g/>
  <g/>
  <g/>
  <g/>
  <g/>
  <g/>
  <g/>
  <g/>
  <g/>
  <g/>
  <g/>
  <g/>
  <g/>
  <g/>
  <g/>
  <path style="fill: rgb(255, 183, 28);" d="M 240.457 201.518 C 239.386 210.748 237.855 235.846 250.727 254.403 C 255.476 261.247 260.526 261.685 262.502 264.362 C 287.401 307.833 243.457 322.672 240.771 313.313 C 235.956 296.54 202.076 285.324 176.479 313.605 C 150.882 341.886 168.579 370.708 168.579 370.708 L 189.788 356.308 C 189.788 356.308 177.721 334.731 196.369 324.355 C 215.016 313.98 219.754 321.342 217.859 330.045 C 215.964 338.749 215.75 367.214 244.407 371.548 C 342.825 386.437 369.712 225.3 304.524 224.863 C 286.61 224.744 273.236 241.667 271.946 241.503 C 264.796 240.587 258.638 211.104 262.737 202.442 C 264.773 198.143 245.196 193.821 240.457 201.518 L 240.457 201.518 Z"/>
  <ellipse transform="matrix(-0.848521, 0.529161, -0.486543, -0.875099, 431.318819, 711.532394)" style="fill: rgb(255, 183, 28);" cx="51.369" cy="429.218" rx="12.835" ry="7.743"/>
  <path style="fill: rgb(255, 183, 28);" d="M 191.468 301.659 C 186.345 304.407 181.267 308.314 176.479 313.604 C 150.882 341.885 168.579 370.708 168.579 370.708 L 169.637 369.989 L 168.571 363.038 C 168.571 363.038 164.194 355.417 165.111 341.76 C 165.979 328.827 180.053 309.578 191.468 301.659 Z"/>
  <path style="fill: rgb(255, 183, 28);" d="M 169.911 371.781 C 169.103 371.323 168.451 370.694 168.005 369.893 C 166.954 368.003 167.248 365.519 168.57 363.039 L 169.911 371.781 Z"/>
  <path style="fill: rgb(255, 183, 28);" d="M 220.572 352.136 C 222.757 358.465 226.867 364.609 234.174 368.511 C 237.089 369.901 240.475 370.953 244.408 371.547 C 330.409 384.559 361.786 263.162 324.837 232.032 C 333.226 242.055 343.113 283.429 327.114 316.538 C 310.323 351.284 288.552 365.963 264.759 368.574 C 241.02 371.179 225.229 365.423 220.572 352.136 L 220.572 352.136 Z"/>
  <g transform="matrix(0.392416, 0, 0, 0.415602, 158.738953, 184.721573)" style="">
    <path style="fill: rgb(255, 183, 28);" d="M209.484,38.761c-7.414,102.926,32.19,128.072,16.902,102.773 c-15.084-24.962-14.725-83.207-11.425-107.097C212.833,35.602,210.969,37.03,209.484,38.761z"/>
    <path style="fill: rgb(255, 183, 28);" d="M376.719,99.041c68.829-0.739,69.246,90.544,65.627,133.61 C442.197,99.638,384.124,104.121,376.719,99.041z"/>
  </g>
  <g transform="matrix(0.392416, 0, 0, 0.415602, 158.738953, 184.721573)" style="">
    <path style="fill: rgb(255, 183, 28);" d="M260.611,35.631c-6.19,31.339-0.419,92.435,23.648,113.165c0,0,1.452-8.196,11.143-17.417 c-3.771,3.252-6.156,5.334-6.91,5.243c-18.221-2.203-33.914-73.142-23.468-93.986C266.259,40.174,264.368,37.708,260.611,35.631z"/>
    <path style="fill: rgb(255, 183, 28);" d="M151.62,342.729l0.002-0.002c14.863-47.929-102.025-16.902-81.235,45.827l0.005,0.015 c-3.097-16.923-0.666-38.843,25.503-52.591C138.026,313.843,152.292,325.26,151.62,342.729z"/>
  </g>
  <ellipse transform="matrix(-0.852549, 0.522647, -0.492609, -0.870964, 433.75708, 709.815392)" style="fill: rgb(196, 134, 0);" cx="51.369" cy="429.218" rx="12.945" ry="7.75"/>
  <path style="fill: rgb(196, 134, 0);" d="M 191.265 301.618 C 186.074 304.356 180.928 308.248 176.076 313.518 C 150.139 341.689 168.071 370.4 168.071 370.4 L 169.142 369.686 L 168.062 362.761 C 168.062 362.761 163.628 355.168 164.557 341.565 C 165.437 328.682 179.696 309.508 191.265 301.618 Z"/>
  <path style="fill: rgb(196, 134, 0);" d="M 169.422 371.47 C 168.602 371.015 167.941 370.387 167.49 369.589 C 166.424 367.707 166.722 365.233 168.061 362.762 L 169.422 371.47 Z"/>
  <path style="fill: rgb(255, 211, 115);" d="M 259.422 319.395 C 250.44 324.09 240.876 324.021 235.893 318.444 L 235.892 318.444 C 235.892 318.444 226.335 312.09 223.426 312.705 C 223.157 312.762 222.804 312.948 222.385 313.237 C 222.583 313.507 222.777 313.782 222.967 314.07 C 226.205 319.015 226.57 325.329 225.386 331.159 C 224.206 336.976 224.98 345.105 226.905 350.59 C 230.3 360.263 237.318 364.668 246.143 366.099 C 283.299 372.126 312.511 349.697 327.623 311.985 C 297.498 325.866 280.611 306.323 259.422 319.395 L 259.422 319.395 Z"/>
  <path style="fill: rgb(196, 134, 0);" d="M 220.758 351.901 C 222.971 358.205 227.135 364.325 234.54 368.213 C 237.496 369.598 240.926 370.645 244.911 371.237 C 332.061 384.198 363.857 263.271 326.414 232.26 C 334.915 242.244 344.935 283.46 328.722 316.44 C 311.706 351.052 289.645 365.675 265.536 368.276 C 241.478 370.869 225.477 365.137 220.758 351.901 L 220.758 351.901 Z"/>
  <g transform="matrix(0.397651, 0, 0, 0.413997, 158.098328, 185.133194)" style="">
    <path style="fill: rgb(196, 134, 0);" d="M209.484,38.761c-7.414,102.926,32.19,128.072,16.902,102.773 c-15.084-24.962-14.725-83.207-11.425-107.097C212.833,35.602,210.969,37.03,209.484,38.761z"/>
    <path style="fill: rgb(196, 134, 0);" d="M376.719,99.041c68.829-0.739,69.246,90.544,65.627,133.61 C442.197,99.638,384.124,104.121,376.719,99.041z"/>
  </g>
  <g transform="matrix(0.397651, 0, 0, 0.413997, 158.098328, 185.133194)" style="">
    <path style="fill: rgb(196, 134, 0);" d="M260.611,35.631c-6.19,31.339-0.419,92.435,23.648,113.165c0,0,1.452-8.196,11.143-17.417 c-3.771,3.252-6.156,5.334-6.91,5.243c-18.221-2.203-33.914-73.142-23.468-93.986C266.259,40.174,264.368,37.708,260.611,35.631z"/>
    <path style="fill: rgb(196, 134, 0);" d="M151.62,342.729l0.002-0.002c14.863-47.929-102.025-16.902-81.235,45.827l0.005,0.015 c-3.097-16.923-0.666-38.843,25.503-52.591C138.026,313.843,152.292,325.26,151.62,342.729z"/>
  </g>
</svg>